# xmcd CD database file
#
# Track frame offsets:
#	150
#	47013
#	100770
#	178055
#	184445
#	222433
#
# Disc length: 3919 seconds
#
# Revision: 3
# Processed by: cddbd v1.5.2PL0 Copyright (c) Steve Scherf et al.
# Submitted via: CDex 1.51
#
DISCID=550f4d06
DTITLE=Cairo - Conflict And Dreams
DYEAR=1997
DGENRE=Progressive Rock
TTITLE0=Angeles And Rage
TTITLE1=Corridors]
TTITLE2=Western Desert
TTITLE3=Imege
TTITLE4=Then You Were Gone
TTITLE5=Valley Of The Shadow
EXTD=YEAR: 1997
EXTT0=
EXTT1=
EXTT2=
EXTT3=
EXTT4=
EXTT5=
PLAYORDER=
